<svg width="79" height="79" viewBox="0 0 79 79" fill="none" xmlns="http://www.w3.org/2000/svg">
<circle cx="39.2799" cy="39.2799" r="39.2799" fill="url(#paint0_radial_967_47)"/>
<path d="M52.5424 27.4281H49.4096L47.4343 25.4528C46.2906 24.3091 44.2838 23.4775 42.666 23.4775H34.7649C33.1471 23.4775 31.1402 24.3091 29.9966 25.4528L28.0213 27.4281H24.8885C21.6214 27.4281 18.9626 30.0868 18.9626 33.3539V49.1562C18.9626 52.4233 21.6214 55.082 24.8885 55.082H52.5424C55.8095 55.082 58.4682 52.4233 58.4682 49.1562V33.3539C58.4682 30.0868 55.8095 27.4281 52.5424 27.4281ZM38.7154 47.1809C36.8816 47.1806 35.123 46.4519 33.8265 45.155C32.5299 43.8581 31.8017 42.0993 31.802 40.2654C31.8022 38.4316 32.531 36.673 33.8279 35.3765C35.1248 34.0799 36.8836 33.3517 38.7174 33.352C40.5513 33.3522 42.3099 34.081 43.6064 35.3779C44.9029 36.6748 45.6312 38.4336 45.6309 40.2674C45.6306 42.1012 44.9019 43.8599 43.605 45.1564C42.3081 46.4529 40.5493 47.1812 38.7154 47.1809ZM50.5671 37.8951C50.2299 37.8951 49.896 37.8287 49.5844 37.6996C49.2729 37.5706 48.9898 37.3814 48.7514 37.143C48.5129 36.9045 48.3238 36.6215 48.1947 36.3099C48.0657 35.9984 47.9993 35.6645 47.9993 35.3272C47.9993 34.99 48.0657 34.6561 48.1947 34.3446C48.3238 34.033 48.5129 33.7499 48.7514 33.5115C48.9898 33.273 49.2729 33.0839 49.5844 32.9548C49.896 32.8258 50.2299 32.7594 50.5671 32.7594C51.2482 32.7594 51.9013 33.0299 52.3829 33.5115C52.8644 33.9931 53.135 34.6462 53.135 35.3272C53.135 36.0083 52.8644 36.6614 52.3829 37.143C51.9013 37.6246 51.2482 37.8951 50.5671 37.8951Z" fill="white"/>
<defs>
<radialGradient id="paint0_radial_967_47" cx="0" cy="0" r="1" gradientUnits="userSpaceOnUse" gradientTransform="translate(39 39) rotate(89.5947) scale(39.5607)">
<stop offset="0.490385" stop-color="#9CB930"/>
<stop offset="1" stop-color="#7E942D"/>
</radialGradient>
</defs>
</svg>
