<svg width="40" height="32" viewBox="0 0 40 32" fill="none" xmlns="http://www.w3.org/2000/svg">
<path d="M33.5798 3.95056H30.447L28.4717 1.97528C27.328 0.831593 25.3211 0 23.7034 0H15.8022C14.1845 0 12.1776 0.831593 11.0339 1.97528L9.05863 3.95056H5.92584C2.65873 3.95056 0 6.60929 0 9.8764V25.6786C0 28.9458 2.65873 31.6045 5.92584 31.6045H33.5798C36.8469 31.6045 39.5056 28.9458 39.5056 25.6786V9.8764C39.5056 6.60929 36.8469 3.95056 33.5798 3.95056ZM19.7528 23.7034C17.919 23.7031 16.1604 22.9744 14.8638 21.6775C13.5673 20.3806 12.8391 18.6217 12.8393 16.7879C12.8396 14.9541 13.5683 13.1955 14.8652 11.8989C16.1621 10.6024 17.9209 9.87416 19.7548 9.87442C21.5886 9.87469 23.3472 10.6034 24.6438 11.9003C25.9403 13.1972 26.6685 14.956 26.6683 16.7899C26.668 18.6237 25.9393 20.3823 24.6424 21.6789C23.3455 22.9754 21.5866 23.7036 19.7528 23.7034ZM31.6045 14.4176C31.2673 14.4176 30.9333 14.3511 30.6218 14.2221C30.3103 14.0931 30.0272 13.9039 29.7887 13.6655C29.5503 13.427 29.3611 13.1439 29.2321 12.8324C29.103 12.5208 29.0366 12.1869 29.0366 11.8497C29.0366 11.5125 29.103 11.1786 29.2321 10.867C29.3611 10.5555 29.5503 10.2724 29.7887 10.034C30.0272 9.7955 30.3103 9.60635 30.6218 9.47731C30.9333 9.34826 31.2673 9.28184 31.6045 9.28184C32.2855 9.28184 32.9387 9.55238 33.4202 10.034C33.9018 10.5155 34.1723 11.1687 34.1723 11.8497C34.1723 12.5307 33.9018 13.1839 33.4202 13.6655C32.9387 14.147 32.2855 14.4176 31.6045 14.4176Z" fill="white"/>
</svg>
