<svg width="28" height="31" viewBox="0 0 28 31" fill="none" xmlns="http://www.w3.org/2000/svg">
<g filter="url(#filter0_d_636_199)">
<path d="M4 21.505V8.51082C4 8.12811 4.0819 7.76583 4.24571 7.42399C4.40952 7.08214 4.63524 6.80058 4.92286 6.57933L12.6157 0.482874C13.0186 0.160958 13.4786 0 13.9957 0C14.5129 0 14.9757 0.160958 15.3843 0.482874L23.0771 6.57784C23.3657 6.79909 23.5914 7.08114 23.7543 7.42399C23.9181 7.76583 24 8.12811 24 8.51082V21.505C24 21.9057 23.8576 22.255 23.5729 22.553C23.2881 22.851 22.9543 23 22.5714 23H17.7371C17.4095 23 17.1352 22.8844 16.9143 22.6532C16.6933 22.421 16.5829 22.1339 16.5829 21.7921V14.6626C16.5829 14.3207 16.4724 14.0342 16.2514 13.803C16.0295 13.5708 15.7552 13.4547 15.4286 13.4547H12.5714C12.2448 13.4547 11.971 13.5708 11.75 13.803C11.5281 14.0342 11.4171 14.3207 11.4171 14.6626V21.7936C11.4171 22.1354 11.3067 22.4219 11.0857 22.6532C10.8648 22.8844 10.591 23 10.2643 23H5.42857C5.04571 23 4.7119 22.851 4.42714 22.553C4.14238 22.255 4 21.9057 4 21.505Z" fill="#7B7B7B"/>
</g>
<defs>
<filter id="filter0_d_636_199" x="0" y="0" width="28" height="31" filterUnits="userSpaceOnUse" color-interpolation-filters="sRGB">
<feFlood flood-opacity="0" result="BackgroundImageFix"/>
<feColorMatrix in="SourceAlpha" type="matrix" values="0 0 0 0 0 0 0 0 0 0 0 0 0 0 0 0 0 0 127 0" result="hardAlpha"/>
<feOffset dy="4"/>
<feGaussianBlur stdDeviation="2"/>
<feComposite in2="hardAlpha" operator="out"/>
<feColorMatrix type="matrix" values="0 0 0 0 0 0 0 0 0 0 0 0 0 0 0 0 0 0 0.25 0"/>
<feBlend mode="normal" in2="BackgroundImageFix" result="effect1_dropShadow_636_199"/>
<feBlend mode="normal" in="SourceGraphic" in2="effect1_dropShadow_636_199" result="shape"/>
</filter>
</defs>
</svg>
