<svg width="31" height="30" viewBox="0 0 31 30" fill="none" xmlns="http://www.w3.org/2000/svg">
<g filter="url(#filter0_d_636_187)">
<path d="M15.5 11C18.6769 11 21.25 8.53875 21.25 5.5C21.25 2.46125 18.6769 0 15.5 0C12.3231 0 9.75 2.46125 9.75 5.5C9.75 8.53875 12.3231 11 15.5 11ZM15.5 13.75C11.6619 13.75 4 15.5925 4 19.25V20.625C4 21.3812 4.64687 22 5.4375 22H25.5625C26.3531 22 27 21.3812 27 20.625V19.25C27 15.5925 19.3381 13.75 15.5 13.75Z" fill="#7B7B7B"/>
</g>
<defs>
<filter id="filter0_d_636_187" x="0" y="0" width="31" height="30" filterUnits="userSpaceOnUse" color-interpolation-filters="sRGB">
<feFlood flood-opacity="0" result="BackgroundImageFix"/>
<feColorMatrix in="SourceAlpha" type="matrix" values="0 0 0 0 0 0 0 0 0 0 0 0 0 0 0 0 0 0 127 0" result="hardAlpha"/>
<feOffset dy="4"/>
<feGaussianBlur stdDeviation="2"/>
<feComposite in2="hardAlpha" operator="out"/>
<feColorMatrix type="matrix" values="0 0 0 0 0 0 0 0 0 0 0 0 0 0 0 0 0 0 0.25 0"/>
<feBlend mode="normal" in2="BackgroundImageFix" result="effect1_dropShadow_636_187"/>
<feBlend mode="normal" in="SourceGraphic" in2="effect1_dropShadow_636_187" result="shape"/>
</filter>
</defs>
</svg>
