<svg width="402" height="76" viewBox="0 0 402 76" fill="none" xmlns="http://www.w3.org/2000/svg">
<g filter="url(#filter0_d_819_398)">
<path d="M-2 0L140.403 13C158.194 30.8554 171.416 36.9778 202.01 39.5C229.241 38.2001 234.68 32.9663 265.132 13L404 0V78H-2V0Z" fill="white"/>
<path d="M139.952 13.9629C148.79 22.7983 156.586 28.8101 166.006 32.917C175.506 37.0585 186.585 39.2322 201.928 40.4971L201.992 40.502L202.058 40.499C215.744 39.8457 224.053 38.198 232.783 34.1572C241.401 30.1685 250.423 23.8428 265.471 13.9727L403 1.09766V77H-1V1.09473L139.952 13.9629Z" stroke="#7B7B7B" stroke-width="2"/>
</g>
<defs>
<filter id="filter0_d_819_398" x="-6" y="0" width="414" height="86" filterUnits="userSpaceOnUse" color-interpolation-filters="sRGB">
<feFlood flood-opacity="0" result="BackgroundImageFix"/>
<feColorMatrix in="SourceAlpha" type="matrix" values="0 0 0 0 0 0 0 0 0 0 0 0 0 0 0 0 0 0 127 0" result="hardAlpha"/>
<feOffset dy="4"/>
<feGaussianBlur stdDeviation="2"/>
<feComposite in2="hardAlpha" operator="out"/>
<feColorMatrix type="matrix" values="0 0 0 0 0 0 0 0 0 0 0 0 0 0 0 0 0 0 0.25 0"/>
<feBlend mode="normal" in2="BackgroundImageFix" result="effect1_dropShadow_819_398"/>
<feBlend mode="normal" in="SourceGraphic" in2="effect1_dropShadow_819_398" result="shape"/>
</filter>
</defs>
</svg>
