<svg width="402" height="97" viewBox="0 0 402 97" fill="none" xmlns="http://www.w3.org/2000/svg">
<g filter="url(#filter0_d_875_53)">
<path d="M-4 0H402V89C244.6 70.4334 155.935 69.6625 -4 89V0Z" fill="#C1E734"/>
<path d="M169.438 50V47.1952L182.187 28.9092H169.365V25.133H187.772V27.9378L175.035 46.2238H187.845V50H169.438ZM213.255 37.5665C213.255 40.2458 212.753 42.5407 211.75 44.4511C210.754 46.3533 209.394 47.8104 207.67 48.8222C205.954 49.8341 204.007 50.34 201.83 50.34C199.652 50.34 197.701 49.8341 195.977 48.8222C194.261 47.8023 192.901 46.3412 191.897 44.4389C190.902 42.5286 190.404 40.2378 190.404 37.5665C190.404 34.8871 190.902 32.5963 191.897 30.6941C192.901 28.7837 194.261 27.3226 195.977 26.3108C197.701 25.2989 199.652 24.793 201.83 24.793C204.007 24.793 205.954 25.2989 207.67 26.3108C209.394 27.3226 210.754 28.7837 211.75 30.6941C212.753 32.5963 213.255 34.8871 213.255 37.5665ZM208.726 37.5665C208.726 35.6804 208.431 34.0898 207.84 32.7946C207.257 31.4914 206.448 30.5079 205.412 29.8441C204.375 29.1723 203.181 28.8363 201.83 28.8363C200.478 28.8363 199.284 29.1723 198.248 29.8441C197.212 30.5079 196.398 31.4914 195.807 32.7946C195.224 34.0898 194.933 35.6804 194.933 37.5665C194.933 39.4526 195.224 41.0472 195.807 42.3505C196.398 43.6456 197.212 44.6291 198.248 45.301C199.284 45.9648 200.478 46.2967 201.83 46.2967C203.181 46.2967 204.375 45.9648 205.412 45.301C206.448 44.6291 207.257 43.6456 207.84 42.3505C208.431 41.0472 208.726 39.4526 208.726 37.5665ZM219.372 50H214.564L223.318 25.133H228.879L237.646 50H232.838L226.196 30.2327H226.002L219.372 50ZM219.53 40.2499H232.643V43.8682H219.53V40.2499Z" fill="black"/>
</g>
<defs>
<filter id="filter0_d_875_53" x="-8" y="0" width="414" height="97" filterUnits="userSpaceOnUse" color-interpolation-filters="sRGB">
<feFlood flood-opacity="0" result="BackgroundImageFix"/>
<feColorMatrix in="SourceAlpha" type="matrix" values="0 0 0 0 0 0 0 0 0 0 0 0 0 0 0 0 0 0 127 0" result="hardAlpha"/>
<feOffset dy="4"/>
<feGaussianBlur stdDeviation="2"/>
<feComposite in2="hardAlpha" operator="out"/>
<feColorMatrix type="matrix" values="0 0 0 0 0 0 0 0 0 0 0 0 0 0 0 0 0 0 0.25 0"/>
<feBlend mode="normal" in2="BackgroundImageFix" result="effect1_dropShadow_875_53"/>
<feBlend mode="normal" in="SourceGraphic" in2="effect1_dropShadow_875_53" result="shape"/>
</filter>
</defs>
</svg>
