<svg width="17" height="15" viewBox="0 0 17 15" fill="none" xmlns="http://www.w3.org/2000/svg">
<path d="M10.7114 0.199829C11.7036 0.199829 12.4597 0.199974 13.062 0.246704C13.6661 0.293598 14.1332 0.388253 14.5454 0.587524C15.2511 0.928949 15.8275 1.47546 16.189 2.14905C16.4007 2.54389 16.5007 2.99116 16.5503 3.56702C16.5996 4.14049 16.6001 4.85967 16.6001 5.80139V6.81409C16.6001 7.75581 16.5996 8.47498 16.5503 9.04846C16.5007 9.62463 16.4009 10.0724 16.189 10.4674C15.8275 11.141 15.2511 11.6865 14.5454 12.028C14.1332 12.2273 13.6662 12.3219 13.062 12.3688C12.4597 12.4155 11.7036 12.4156 10.7114 12.4156H4.32373C4.13779 12.4157 3.96098 12.486 3.83252 12.608L2.05518 14.2965C1.71229 14.622 1.24828 14.6667 0.875488 14.5201C0.502126 14.3733 0.199707 14.0252 0.199707 13.5543V5.80139C0.199707 4.85967 0.200161 4.14049 0.249512 3.56702C0.299086 2.99116 0.399122 2.54389 0.61084 2.14905C0.972318 1.47546 1.54868 0.928949 2.25439 0.587524C2.6666 0.388252 3.1337 0.293598 3.73779 0.246704C4.34013 0.199974 5.09616 0.199829 6.08838 0.199829H10.7114ZM5.73291 7.35217C5.54708 7.35225 5.37109 7.42263 5.24268 7.54456C5.11462 7.66617 5.04448 7.82846 5.04443 7.99573C5.04443 8.16308 5.11454 8.32621 5.24268 8.44788C5.37107 8.56965 5.5472 8.64018 5.73291 8.64026H8.3999C8.58586 8.64026 8.76262 8.56988 8.89111 8.44788C9.0192 8.32622 9.08838 8.16304 9.08838 7.99573C9.08833 7.82861 9.01895 7.66614 8.89111 7.54456C8.76262 7.42256 8.58586 7.35217 8.3999 7.35217H5.73291ZM5.73291 3.9762C5.54708 3.97628 5.37109 4.04665 5.24268 4.16858C5.11462 4.29019 5.04449 4.45249 5.04443 4.61975C5.04443 4.7871 5.11454 4.95023 5.24268 5.0719C5.37107 5.19369 5.54719 5.2642 5.73291 5.26428H11.0669C11.2526 5.2642 11.4287 5.19369 11.5571 5.0719C11.6853 4.95023 11.7554 4.7871 11.7554 4.61975C11.7553 4.45249 11.6852 4.29019 11.5571 4.16858C11.4287 4.04665 11.2527 3.97628 11.0669 3.9762H5.73291Z" fill="white" stroke="black" stroke-width="0.4"/>
</svg>
