<svg width="20" height="23" viewBox="0 0 20 23" fill="none" xmlns="http://www.w3.org/2000/svg">
<path d="M0 21.505V8.51082C0 8.12811 0.0819047 7.76583 0.245714 7.42399C0.409524 7.08214 0.635238 6.80058 0.922857 6.57933L8.61571 0.482874C9.01857 0.160958 9.47857 0 9.99571 0C10.5129 0 10.9757 0.160958 11.3843 0.482874L19.0771 6.57784C19.3657 6.79909 19.5914 7.08114 19.7543 7.42399C19.9181 7.76583 20 8.12811 20 8.51082V21.505C20 21.9057 19.8576 22.255 19.5729 22.553C19.2881 22.851 18.9543 23 18.5714 23H13.7371C13.4095 23 13.1352 22.8844 12.9143 22.6532C12.6933 22.4209 12.5829 22.1339 12.5829 21.7921V14.6626C12.5829 14.3207 12.4724 14.0342 12.2514 13.803C12.0295 13.5708 11.7552 13.4547 11.4286 13.4547H8.57143C8.24476 13.4547 7.97095 13.5708 7.75 13.803C7.5281 14.0342 7.41714 14.3207 7.41714 14.6626V21.7936C7.41714 22.1354 7.30667 22.4219 7.08571 22.6532C6.86476 22.8844 6.59095 23 6.26429 23H1.42857C1.04571 23 0.711904 22.851 0.427143 22.553C0.142381 22.255 0 21.9057 0 21.505Z" fill="#7B7B7B"/>
</svg>
