<svg width="16" height="16" viewBox="0 0 16 16" fill="none" xmlns="http://www.w3.org/2000/svg">
<path d="M11.5205 0.5C12.0047 0.499796 12.4863 0.606812 12.9375 0.816406C13.3888 1.02609 13.8029 1.3352 14.1543 1.72949L14.3838 1.98633C15.0934 2.78442 15.4999 3.8771 15.5 5.02637C15.5 6.17557 15.0932 7.26826 14.3838 8.06641L8.28613 14.9082L8.27734 14.9189L8.00781 15.2363L8.00098 15.2285L7.99316 15.2363L7.68164 14.8701L7.67383 14.8613L1.61816 8.06641C0.907593 7.26901 0.5 6.17601 0.5 5.02637C0.500115 3.87691 0.907694 2.78459 1.61816 1.9873L1.84766 1.72949C2.19895 1.33533 2.61332 1.02609 3.06445 0.816406C3.51517 0.606984 3.99578 0.500051 4.47949 0.5C4.9634 0.5 5.44461 0.606862 5.89551 0.816406C6.34667 1.0261 6.761 1.33529 7.1123 1.72949L7.11328 1.73145L7.62305 2.31348L7.99805 2.74219L8.375 2.31445L8.88965 1.72949L8.88867 1.72852C9.23948 1.33485 9.65404 1.02708 10.1045 0.817383C10.5555 0.607452 11.0364 0.500249 11.5205 0.5ZM11.5225 0.692383C11.0298 0.692383 10.5432 0.801013 10.0918 1.01074C9.64052 1.22049 9.23392 1.5264 8.89453 1.90723L8.89258 1.90918L7.99805 2.9248L7.1084 1.90918L7.10547 1.90527L6.97363 1.76465C6.301 1.08244 5.41347 0.692022 4.47852 0.692383C3.4812 0.692803 2.53816 1.13796 1.85254 1.90723L1.62305 2.16504C0.938899 2.93277 0.562593 3.96267 0.5625 5.02637C0.5625 6.09024 0.938767 7.12084 1.62305 7.88867L7.62793 14.627L8.00098 15.0459L8.37402 14.627L14.3789 7.88867C15.0621 7.1204 15.4375 6.08976 15.4375 5.02637C15.4374 3.96312 15.0619 2.93325 14.3789 2.16504L14.1494 1.90723C13.8101 1.52648 13.4043 1.22047 12.9531 1.01074C12.5017 0.800932 12.0152 0.692427 11.5225 0.692383Z" fill="#C9FF00" stroke="#FF0000"/>
</svg>
