<svg width="10" height="13" viewBox="0 0 10 13" fill="none" xmlns="http://www.w3.org/2000/svg">
<path d="M8.53536 1.67286C9.4533 2.72132 9.9783 4.13649 9.99934 5.61912C10.0204 7.10176 9.53583 8.53563 8.64814 9.61753L8.53536 9.7508L6.1782 12.4428C5.87911 12.7842 5.4776 12.9831 5.05498 12.999C4.63237 13.0149 4.22027 12.8467 3.90215 12.5285L3.82215 12.4428L1.46444 9.75016C0.526774 8.67905 0 7.2263 0 5.71151C0 4.19673 0.526774 2.74398 1.46444 1.67286C2.4021 0.601747 3.67384 0 4.9999 0C6.32596 0 7.5977 0.601747 8.53536 1.67286ZM4.9999 3.80769C4.78104 3.80769 4.56432 3.85693 4.36211 3.95261C4.15991 4.04828 3.97618 4.18852 3.82142 4.3653C3.66666 4.54209 3.5439 4.75197 3.46014 4.98295C3.37639 5.21393 3.33328 5.4615 3.33328 5.71151C3.33328 5.96153 3.37639 6.20909 3.46014 6.44008C3.5439 6.67106 3.66666 6.88094 3.82142 7.05772C3.97618 7.23451 4.15991 7.37474 4.36211 7.47042C4.56432 7.5661 4.78104 7.61534 4.9999 7.61534C5.44192 7.61534 5.86583 7.41476 6.17838 7.05772C6.49093 6.70069 6.66652 6.21644 6.66652 5.71151C6.66652 5.20659 6.49093 4.72234 6.17838 4.3653C5.86583 4.00827 5.44192 3.80769 4.9999 3.80769Z" fill="#FF0000"/>
</svg>
