<svg width="15" height="14" viewBox="0 0 15 14" fill="none" xmlns="http://www.w3.org/2000/svg">
<path d="M13.8333 14L8.58333 9.1C8.16667 9.41111 7.6875 9.65741 7.14583 9.83889C6.60417 10.0204 6.02778 10.1111 5.41667 10.1111C3.90278 10.1111 2.62167 9.62163 1.57333 8.64267C0.525 7.6637 0.000555996 6.468 4.40917e-07 5.05555C-0.000555115 3.64311 0.523889 2.44741 1.57333 1.46844C2.62278 0.489481 3.90389 0 5.41667 0C6.92944 0 8.21083 0.489481 9.26083 1.46844C10.3108 2.44741 10.835 3.64311 10.8333 5.05555C10.8333 5.62593 10.7361 6.16389 10.5417 6.66944C10.3472 7.175 10.0833 7.62222 9.75 8.01111L15 12.9111L13.8333 14ZM5.41667 8.55556C6.45833 8.55556 7.34389 8.21541 8.07333 7.53511C8.80278 6.85481 9.16722 6.0283 9.16667 5.05555C9.16611 4.08281 8.80167 3.25656 8.07333 2.57678C7.345 1.897 6.45944 1.55659 5.41667 1.55556C4.37389 1.55452 3.48861 1.89493 2.76083 2.57678C2.03306 3.25863 1.66833 4.08489 1.66667 5.05555C1.665 6.02622 2.02972 6.85274 2.76083 7.53511C3.49194 8.21748 4.37722 8.55763 5.41667 8.55556Z" fill="#7B7B7B"/>
</svg>
