<svg width="12" height="13" viewBox="0 0 12 13" fill="none" xmlns="http://www.w3.org/2000/svg">
<path d="M10.2424 1.67286C11.344 2.72132 11.974 4.13649 11.9992 5.61912C12.0245 7.10176 11.443 8.53563 10.3778 9.61753L10.2424 9.7508L7.41384 12.4428C7.05494 12.7842 6.57311 12.9831 6.06598 12.999C5.55885 13.0149 5.06432 12.8467 4.68258 12.5285L4.58658 12.4428L1.75732 9.75016C0.632129 8.67905 0 7.2263 0 5.71151C0 4.19673 0.632129 2.74398 1.75732 1.67286C2.88252 0.601747 4.40861 0 5.99988 0C7.59115 0 9.11724 0.601747 10.2424 1.67286ZM5.99988 3.80769C5.73724 3.80769 5.47718 3.85693 5.23453 3.95261C4.99189 4.04828 4.77142 4.18852 4.5857 4.3653C4.39999 4.54209 4.25268 4.75197 4.15217 4.98295C4.05166 5.21393 3.99993 5.4615 3.99993 5.71151C3.99993 5.96153 4.05166 6.20909 4.15217 6.44008C4.25268 6.67106 4.39999 6.88094 4.5857 7.05772C4.77142 7.23451 4.99189 7.37474 5.23453 7.47042C5.47718 7.5661 5.73724 7.61534 5.99988 7.61534C6.5303 7.61534 7.03899 7.41476 7.41406 7.05772C7.78912 6.70069 7.99983 6.21644 7.99983 5.71151C7.99983 5.20659 7.78912 4.72234 7.41406 4.3653C7.03899 4.00827 6.5303 3.80769 5.99988 3.80769Z" fill="#7B7B7B"/>
</svg>
